<?xml version="1.0" encoding="utf-8"?>
<!-- Generator: Adobe Illustrator 24.1.0, SVG Export Plug-In . SVG Version: 6.00 Build 0)  -->
<svg version="1.1" id="Calque_1" xmlns="http://www.w3.org/2000/svg" xmlns:xlink="http://www.w3.org/1999/xlink" x="0px" y="0px"
	 viewBox="0 0 83.5 20.5" style="enable-background:new 0 0 83.5 20.5;" xml:space="preserve">
<style type="text/css">
	.st0{fill:#9EC6BE;}
	.st1{fill:#45DCC3;}
	.st2{fill:#27D8B6;}
	.st3{fill:none;stroke:#FFFFFF;stroke-width:0.7;stroke-miterlimit:10;}
</style>
<g>
	<g>
		<path class="st0" d="M28.1,10.9V5.2c0-1.9,1.3-3.2,3.3-3.2h1.9c0.2,0,0.3,0.1,0.3,0.3v1.4c0,0.2-0.1,0.3-0.3,0.3h-1.6
			c-0.8,0-1.3,0.5-1.3,1.3V7h2.4c0.2,0,0.3,0.1,0.3,0.3v1.3c0,0.2-0.1,0.3-0.3,0.3h-2.4v1.9c0,0.8,0.5,1.3,1.3,1.3h1.6
			c0.2,0,0.3,0.1,0.3,0.3v1.4c0,0.2-0.1,0.3-0.3,0.3h-1.9C29.5,14.1,28.1,12.8,28.1,10.9z"/>
		<path class="st0" d="M34.8,10.2V9.1c0-0.2,0.1-0.3,0.3-0.3H39c0.2,0,0.3,0.1,0.3,0.3v1.1c0,0.2-0.1,0.3-0.3,0.3h-3.9
			C35,10.5,34.8,10.4,34.8,10.2z"/>
		<path class="st0" d="M41,13.7V5.1c0-1.9,1.3-3.3,3.3-3.3s3.3,1.3,3.3,3.3v8.7c0,0.2-0.1,0.3-0.3,0.3h-1.6c-0.2,0-0.3-0.1-0.3-0.3
			V4.9c0-0.7-0.4-1.1-1-1.1s-1,0.4-1,1.1v8.8c0,0.2-0.1,0.3-0.3,0.3h-1.6C41.2,14,41,13.9,41,13.7z"/>
		<path class="st0" d="M49.5,10.9V5.1c0-2,1.4-3.3,3.4-3.3s3.3,1.3,3.3,3.2v6c0,1.9-1.3,3.2-3.3,3.2S49.5,12.9,49.5,10.9z M54,11.2
			V4.9c0-0.7-0.4-1.1-1-1.1s-1.1,0.4-1.1,1.1v6.2c0,0.7,0.4,1.1,1.1,1.1S54,11.8,54,11.2z"/>
		<path class="st1" d="M58.2,10.9V5.1c0-2,1.4-3.3,3.4-3.3s3.3,1.3,3.3,3.2v6c0,1.9-1.3,3.2-3.3,3.2C59.5,14.2,58.2,12.9,58.2,10.9z
			 M62.5,11.2V4.9c0-0.7-0.4-1.1-1-1.1s-1.1,0.4-1.1,1.1v6.2c0,0.7,0.4,1.1,1.1,1.1S62.5,11.8,62.5,11.2z"/>
		<path class="st1" d="M66.8,11V5c0-1.9,1.3-3.2,3.3-3.2c1.9,0,3.1,1.3,3.2,3.4c0,0.2-0.1,0.3-0.3,0.3h-1.7c-0.2,0-0.3-0.1-0.3-0.3
			c0-1-0.4-1.4-0.9-1.4c-0.6,0-0.9,0.4-0.9,1v6.3c0,0.7,0.3,1,0.9,1s1-0.5,1-1.6c0-0.2,0.1-0.3,0.3-0.3H73c0.2,0,0.3,0.1,0.3,0.3
			c-0.1,2.2-1.3,3.6-3.2,3.6C68.1,14.3,66.8,12.9,66.8,11z"/>
		<path class="st1" d="M74.8,10.9V5.1c0-2,1.4-3.3,3.4-3.3s3.3,1.3,3.3,3.2v6c0,1.9-1.3,3.2-3.3,3.2C76.2,14.2,74.8,12.9,74.8,10.9z
			 M79.2,11.2V4.9c0-0.7-0.4-1.1-1-1.1s-1.1,0.4-1.1,1.1v6.2c0,0.7,0.4,1.1,1.1,1.1S79.2,11.8,79.2,11.2z"/>
	</g>
	<g>
		<path class="st2" d="M21,14.3H3.5c-1.1,0-2-0.9-2-2V3.7c0-1.1,0.9-2,2-2H21c1.1,0,2,0.9,2,2v8.6C23,13.4,22.1,14.3,21,14.3z"/>
		<polygon class="st2" points="15.3,14.3 15.3,19.5 20.2,14.3 		"/>
	</g>
	<g>
		<circle class="st3" cx="5.4" cy="11.8" r="1"/>
		<circle class="st3" cx="9.8" cy="7.6" r="1"/>
		<circle class="st3" cx="12.7" cy="9.9" r="1"/>
		<circle class="st3" cx="19.1" cy="3.7" r="1"/>
		<line class="st3" x1="6.1" y1="11.2" x2="9.2" y2="8.2"/>
		<line class="st3" x1="10.6" y1="8.2" x2="11.9" y2="9.4"/>
		<line class="st3" x1="13.5" y1="9.3" x2="18.4" y2="4.4"/>
	</g>
</g>
</svg>
